<svg width="567" height="641" viewBox="0 0 567 641" fill="none" xmlns="http://www.w3.org/2000/svg">
<ellipse cx="283.5" cy="273.5" rx="283.5" ry="273.5" fill="#EEEEEE"/>
<path d="M264.406 224.683C291.609 214.489 308.293 188.166 305.399 161.974C301.919 130.449 271.182 109.898 245.676 110.269C225.481 110.469 210.262 122.855 210.008 135.936C209.66 151.687 224.061 158.586 235.081 156.078C244.141 154.01 249.141 142.65 250.422 134.639C254.528 108.972 233.337 82.811 213.203 70.3401C198.432 61.1876 170.612 52.8839 145.755 61.8512C131.092 67.1452 109.746 82.2168 110.742 103.115C110.804 104.357 111.22 121.929 125.08 129.623C137.32 136.422 151.172 130.634 156.806 120.486C163.28 108.818 157.099 91.7012 144.119 84.9101C117.819 71.1504 63.1966 99.8814 57.4627 139.085C54.4762 159.535 66.7773 186.013 70.5819 191.808C77.9132 203.029 96.3804 216.897 112.139 211.101C123.028 207.104 131.185 189.616 125.258 178.473C119.74 168.178 103.65 166.048 93.0774 169.506C70.3967 176.929 56.9148 215.345 65.9902 245.265C76.5781 280.139 117.757 303.236 148.325 294.508C163.226 290.256 181.794 276.666 181.956 259.634C182.072 247.472 171.924 236.907 162.663 237.008C153.04 237.116 145.029 248.954 144.736 261.618C144.15 286.945 177.372 319.951 209.483 311.779C229.548 306.655 245.036 286.521 247.714 261.849" fill="#403732"/>
<path d="M264.406 224.683C291.609 214.489 308.293 188.166 305.399 161.974C301.919 130.449 271.182 109.898 245.676 110.269C225.481 110.469 210.262 122.855 210.008 135.936C209.66 151.687 224.061 158.586 235.081 156.078C244.141 154.01 249.141 142.65 250.422 134.639C254.528 108.972 233.337 82.811 213.203 70.3401C198.432 61.1876 170.612 52.8839 145.755 61.8512C131.092 67.1452 109.746 82.2168 110.742 103.115C110.804 104.357 111.22 121.929 125.08 129.623C137.32 136.422 151.172 130.634 156.806 120.486C163.28 108.818 157.099 91.7012 144.119 84.9101C117.819 71.1504 63.1966 99.8814 57.4627 139.085C54.4762 159.535 66.7773 186.013 70.5819 191.808C77.9132 203.029 96.3804 216.897 112.139 211.101C123.028 207.104 131.185 189.616 125.258 178.473C119.74 168.178 103.65 166.048 93.0774 169.506C70.3967 176.929 56.9148 215.345 65.9902 245.265C76.5781 280.139 117.757 303.236 148.325 294.508C163.226 290.256 181.794 276.666 181.956 259.634C182.072 247.472 171.924 236.907 162.663 237.008C153.04 237.116 145.029 248.954 144.736 261.618C144.15 286.945 177.372 319.951 209.483 311.779C229.548 306.655 245.036 286.521 247.714 261.849" stroke="#211915" stroke-width="7" stroke-miterlimit="10"/>
<path d="M223.567 339.175C217.802 335.818 189.542 300.018 181.895 224.189V164.266L250.685 164.397" fill="#403732"/>
<path d="M251.163 168.247H432.47C458.523 205.568 484.947 243.459 511 280.779C505.598 301.469 494.377 335.131 470.153 368.23C448.261 398.086 420.148 422.834 387.757 440.763C373.673 432.784 355.09 420.521 341.014 412.534L338.272 506.211C338.272 506.211 291.912 516.41 245.53 514.556V479.966V383.726C238.925 386.34 231.722 387.056 224.732 385.793C217.742 384.53 211.244 381.339 205.971 376.579C200.699 371.819 196.862 365.681 194.893 358.856C192.924 352.031 192.901 344.792 194.828 337.955L223.698 339.368C232.846 282.333 242.001 225.293 251.163 168.247Z" fill="#B26448" stroke="#75422B" stroke-width="6" stroke-miterlimit="10"/>
<path d="M179.988 164.266C202.792 174.12 243.979 187.949 307.607 198.175C379.947 209.797 427.462 205.984 459.859 203.245L433.018 164.273L179.988 164.266Z" fill="#403732"/>
<path d="M286.77 306.678C289.937 306.678 292.504 304.111 292.504 300.944C292.504 297.777 289.937 295.21 286.77 295.21C283.603 295.21 281.036 297.777 281.036 300.944C281.036 304.111 283.603 306.678 286.77 306.678Z" fill="#211915" stroke="#211915" stroke-width="0.75" stroke-miterlimit="10"/>
<path d="M224.949 375.631C229.07 375.631 232.411 372.29 232.411 368.168C232.411 364.047 229.07 360.706 224.949 360.706C220.827 360.706 217.486 364.047 217.486 368.168C217.486 372.29 220.827 375.631 224.949 375.631Z" fill="#23A199"/>
<path d="M181.918 164.266L169.123 164.273V197.434L181.91 224.212L181.918 164.266Z" fill="#23A199"/>
<path d="M360.091 311.979C360.461 312.751 368.51 329.165 386.646 330.894C392.711 331.446 398.809 330.293 404.255 327.566C409.7 324.839 414.276 320.647 417.468 315.46C420.56 310.195 422.091 304.16 421.882 298.058L391.368 301.144L409.118 237.64" fill="#B26448"/>
<path d="M360.091 311.979C360.461 312.751 368.51 329.165 386.646 330.894C392.711 331.446 398.809 330.293 404.255 327.566C409.7 324.839 414.276 320.647 417.468 315.46C420.56 310.195 422.091 304.16 421.882 298.058L391.368 301.144L409.118 237.64" stroke="#75422B" stroke-width="6" stroke-miterlimit="10"/>
<path d="M288.738 273.563C289.248 272.128 297.922 248.622 318.835 244.238C339.401 239.932 364.035 255.768 370.656 283.411C359.08 291.529 335.767 298.019 321.22 294.654C309.258 291.899 296.78 283.619 288.738 273.563Z" fill="white"/>
<path d="M495.026 273.301C494.517 271.866 485.851 248.359 464.93 243.976C444.363 239.67 419.73 255.552 413.109 283.148C424.685 291.267 447.998 297.757 462.545 294.392C474.507 291.652 486.985 283.38 495.026 273.301Z" fill="white"/>
<path d="M501.099 271.966C500.744 270.955 489.138 239.029 458.848 238.481C437.317 238.095 419.49 254.471 412.545 283.495C412.645 283.627 420.44 268.601 427.933 260.035C435.426 251.469 445.204 247.248 456.88 247.287C480.556 247.356 490.257 272.066 489.77 272.753C460.877 312.581 412.645 283.642 412.645 283.642C440.234 300.311 477.06 304.077 501.099 271.966Z" fill="#211915"/>
<path d="M354.784 271.458C358.064 263.117 353.975 253.701 345.649 250.427C337.324 247.152 327.916 251.26 324.635 259.601C321.354 267.942 325.444 277.358 333.769 280.633C342.094 283.907 351.503 279.8 354.784 271.458Z" fill="#531E0B"/>
<path d="M348.891 269.141C350.906 264.016 348.393 258.231 343.276 256.218C338.159 254.206 332.378 256.729 330.362 261.853C328.347 266.978 330.861 272.763 335.977 274.776C341.094 276.788 346.875 274.265 348.891 269.141Z" fill="black"/>
<path d="M324.453 269.743C328.932 269.743 332.564 266.112 332.564 261.633C332.564 257.153 328.932 253.522 324.453 253.522C319.974 253.522 316.342 257.153 316.342 261.633C316.342 266.112 319.974 269.743 324.453 269.743Z" fill="white"/>
<path d="M463.084 280.636C471.41 277.361 475.499 267.945 472.219 259.604C468.938 251.263 459.529 247.155 451.204 250.43C442.879 253.704 438.789 263.12 442.07 271.462C445.351 279.803 454.759 283.91 463.084 280.636Z" fill="#531E0B"/>
<path d="M460.882 274.768C465.999 272.755 468.513 266.97 466.497 261.845C464.482 256.721 458.7 254.198 453.584 256.21C448.467 258.223 445.953 264.008 447.969 269.133C449.984 274.257 455.766 276.78 460.882 274.768Z" fill="black"/>
<path d="M444.007 267.86C448.486 267.86 452.117 264.229 452.117 259.75C452.117 255.27 448.486 251.639 444.007 251.639C439.527 251.639 435.896 255.27 435.896 259.75C435.896 264.229 439.527 267.86 444.007 267.86Z" fill="white"/>
<path d="M348.183 435.655L368.58 469.78L340.682 522.565L308.965 480.545L348.183 435.655Z" fill="#23A199" stroke="#03756D" stroke-width="6" stroke-miterlimit="10"/>
<path d="M239.88 435.655L219.522 469.78L247.389 522.565L279.107 480.545L239.88 435.655Z" fill="#23A199" stroke="#03756D" stroke-width="6" stroke-miterlimit="10"/>
<path d="M280.187 239.16C288.419 231.384 299.386 227.166 310.708 227.423C317.792 227.492 324.977 228.889 331.915 230.509C343.591 233.272 355.12 236.683 366.704 239.847C369.698 240.665 370.771 240.117 371.735 237.2C373.402 232.122 371.735 227.654 366.534 225.825C360.797 223.927 354.946 222.393 349.016 221.233C338.775 219.034 328.419 217.56 317.9 217.683C304.719 217.846 294.085 223.549 285.056 232.724C283.189 234.615 281.499 236.683 279.724 238.666L280.187 239.16Z" fill="#403732"/>
<path d="M485.549 240.689C480.363 232.585 473.595 228.542 465.701 228.472C460.839 228.426 455.799 229.684 450.907 231.189C442.665 233.728 434.469 236.923 426.251 239.855C424.128 240.627 423.441 240.04 423.048 237.131C422.369 232.053 423.92 227.639 427.64 225.91C431.65 224.157 435.798 222.737 440.041 221.666C447.249 219.659 454.464 218.378 461.649 218.695C470.655 219.088 477.415 224.946 482.763 234.229C483.867 236.143 484.839 238.227 485.85 240.233L485.549 240.689Z" fill="#403732"/>
<path d="M282.666 272.213C283.021 271.202 294.627 239.276 324.925 238.728C346.448 238.342 364.282 254.711 371.228 283.743C371.127 283.874 363.333 268.841 355.84 260.275C348.346 251.709 338.576 247.495 326.893 247.534C303.216 247.603 293.516 272.313 294.01 273C322.934 312.813 371.143 283.874 371.143 283.874C343.569 300.527 306.728 304.324 282.666 272.213Z" fill="#211915"/>
<path d="M307.753 338.897C303.895 391.374 358.686 393.689 358.686 393.689C369.236 384.428 403.701 355.875 414.25 346.614C414.25 346.614 398.816 349.701 388.012 347.386C379.523 345.842 369.49 341.984 369.49 341.984C366.249 342.871 352.513 345.071 339.394 345.071C323.705 345.071 317.014 342.756 307.753 338.897Z" fill="#BB615A" stroke="#75422B" stroke-width="6" stroke-miterlimit="10"/>
<path d="M308.17 344.106C314.745 353.043 333.583 372.289 379.422 373.655C385.92 368.214 390.998 364.163 397.488 358.715C350.506 360.621 307.753 338.897 307.753 338.897C307.753 338.897 307.391 343.057 308.17 344.106Z" fill="white" stroke="#75422B" stroke-width="6" stroke-miterlimit="10"/>
</svg>
